{
    "asset" : {
        "generator" : "Khronos glTF Blender I/O v1.7.33",
        "version" : "2.0"
    },
    "scene" : 0,
    "scenes" : [
        {
            "name" : "Scene",
            "nodes" : [
                0,
                1
            ]
        }
    ],
    "nodes" : [
        {
            "mesh" : 0,
            "name" : "Ref-glassFull"
        },
        {
            "mesh" : 1,
            "name" : "Ref-glassScreenStencil",
            "translation" : [
                0,
                -0.10011900216341019,
                -0.015323691070079803
            ]
        }
    ],
    "materials" : [
        {
            "doubleSided" : true,
            "name" : "glassScreen",
            "pbrMetallicRoughness" : {
                "baseColorFactor" : [
                    0,
                    0,
                    0,
                    1
                ],
                "metallicFactor" : 0,
                "roughnessFactor" : 0.19426751136779785
            }
        },
        {
            "doubleSided" : true,
            "name" : "glassMaterial.003",
            "pbrMetallicRoughness" : {
                "baseColorFactor" : [
                    0,
                    0.003907511010766029,
                    1,
                    1
                ],
                "metallicFactor" : 0,
                "roughnessFactor" : 0.19426751136779785
            }
        }
    ],
    "meshes" : [
        {
            "name" : "GlassFull",
            "primitives" : [
                {
                    "attributes" : {
                        "POSITION" : 0,
                        "NORMAL" : 1,
                        "TEXCOORD_0" : 2
                    },
                    "indices" : 3,
                    "material" : 0
                }
            ]
        },
        {
            "name" : "Ref-glassScreenStencil",
            "primitives" : [
                {
                    "attributes" : {
                        "POSITION" : 4,
                        "NORMAL" : 5,
                        "TEXCOORD_0" : 6
                    },
                    "indices" : 7,
                    "material" : 1
                }
            ]
        }
    ],
    "accessors" : [
        {
            "bufferView" : 0,
            "componentType" : 5126,
            "count" : 192,
            "max" : [
                1.4786800146102905,
                2.0627012252807617,
                -0.026882994920015335
            ],
            "min" : [
                -1.4786800146102905,
                0.09509927779436111,
                -0.035186637192964554
            ],
            "type" : "VEC3"
        },
        {
            "bufferView" : 1,
            "componentType" : 5126,
            "count" : 192,
            "type" : "VEC3"
        },
        {
            "bufferView" : 2,
            "componentType" : 5126,
            "count" : 192,
            "type" : "VEC2"
        },
        {
            "bufferView" : 3,
            "componentType" : 5123,
            "count" : 228,
            "type" : "SCALAR"
        },
        {
            "bufferView" : 4,
            "componentType" : 5126,
            "count" : 43,
            "max" : [
                1.4654773473739624,
                2.153404712677002,
                -0.014793701469898224
            ],
            "min" : [
                -1.4654773473739624,
                0.32770776748657227,
                -0.014793701469898224
            ],
            "type" : "VEC3"
        },
        {
            "bufferView" : 5,
            "componentType" : 5126,
            "count" : 43,
            "type" : "VEC3"
        },
        {
            "bufferView" : 6,
            "componentType" : 5126,
            "count" : 43,
            "type" : "VEC2"
        },
        {
            "bufferView" : 7,
            "componentType" : 5123,
            "count" : 54,
            "type" : "SCALAR"
        }
    ],
    "bufferViews" : [
        {
            "buffer" : 0,
            "byteLength" : 2304,
            "byteOffset" : 0
        },
        {
            "buffer" : 0,
            "byteLength" : 2304,
            "byteOffset" : 2304
        },
        {
            "buffer" : 0,
            "byteLength" : 1536,
            "byteOffset" : 4608
        },
        {
            "buffer" : 0,
            "byteLength" : 456,
            "byteOffset" : 6144
        },
        {
            "buffer" : 0,
            "byteLength" : 516,
            "byteOffset" : 6600
        },
        {
            "buffer" : 0,
            "byteLength" : 516,
            "byteOffset" : 7116
        },
        {
            "buffer" : 0,
            "byteLength" : 344,
            "byteOffset" : 7632
        },
        {
            "buffer" : 0,
            "byteLength" : 108,
            "byteOffset" : 7976
        }
    ],
    "buffers" : [
        {
            "byteLength" : 8084,
            "uri" : "data:application/octet-stream;base64,"
        }
    ]
}
